<svg xmlns="http://www.w3.org/2000/svg" width="215" height="215" viewBox="0 0 215 215">
  <metadata><?xpacket begin="﻿" id="W5M0MpCehiHzreSzNTczkc9d"?>
<x:xmpmeta xmlns:x="adobe:ns:meta/" x:xmptk="Adobe XMP Core 5.6-c142 79.160924, 2017/07/13-01:06:39        ">
   <rdf:RDF xmlns:rdf="http://www.w3.org/1999/02/22-rdf-syntax-ns#">
      <rdf:Description rdf:about=""/>
   </rdf:RDF>
</x:xmpmeta>
                                                                                                    
                                                                                                    
                                                                                                    
                                                                                                    
                                                                                                    
                                                                                                    
                                                                                                    
                                                                                                    
                                                                                                    
                                                                                                    
                                                                                                    
                                                                                                    
                                                                                                    
                                                                                                    
                                                                                                    
                                                                                                    
                                                                                                    
                                                                                                    
                                                                                                    
                                                                                                    
                           
<?xpacket end="w"?></metadata>
<defs>
    <style>
      .cls-1 {
        fill: #e6c17e;
        fill-rule: evenodd;
      }
    </style>
  </defs>
  <path id="Logo" class="cls-1" d="M52.932,141.447l-2.379,22.632A10.034,10.034,0,0,0,60.7,175.4H72.03l1.189-11.316L75.6,141.447l1.189-11.316H65.454A12.928,12.928,0,0,0,52.932,141.447ZM178.3,0H59.3C40.6,0,23.693,15.273,21.73,33.945L6.269,181.053C4.306,199.724,18,215,36.7,215h119c18.7,0,35.606-15.277,37.569-33.948L208.731,33.945C210.694,15.273,197,0,178.3,0ZM99.455,130.131L94.7,175.4l-2.379,22.632H46.985A20.068,20.068,0,0,1,26.7,175.4l4.758-45.264C32.763,117.683,44.033,107.5,56.5,107.5H79.167l9.515-90.528h22.667Zm30.433,64.017h-0.01a13.293,13.293,0,0,1-3.559,3.879H103.652l2.379-22.632,7.136-67.9h22.667l-5.014,47.7,27.68-47.7h22.667Z"/>
</svg>
